<svg width="8" height="8" viewBox="0 0 8 8" fill="none" xmlns="http://www.w3.org/2000/svg">
<path d="M2.95999 5.85325C3.03425 5.83159 3.11407 5.84032 3.1819 5.87752C3.24972 5.91471 3.3 5.97732 3.32166 6.05159C3.34332 6.12585 3.33459 6.20567 3.29739 6.2735C3.2602 6.34132 3.19758 6.39159 3.12332 6.41325C2.97749 6.45584 2.87249 6.50075 2.80511 6.54159C2.87453 6.58329 2.9842 6.62996 3.13645 6.67342C3.47332 6.76967 3.95545 6.83325 4.49999 6.83325C5.04453 6.83325 5.52666 6.76967 5.86353 6.67342C6.01607 6.62996 6.12545 6.58329 6.19486 6.54159C6.12778 6.50075 6.02278 6.45584 5.87695 6.41325C5.80386 6.39064 5.74258 6.34021 5.70632 6.27284C5.67006 6.20547 5.66173 6.12654 5.68311 6.05308C5.7045 5.97962 5.7539 5.91751 5.82065 5.88013C5.88741 5.84275 5.96618 5.8331 6.03999 5.85325C6.23482 5.91013 6.41332 5.98304 6.55041 6.07667C6.67728 6.16388 6.83332 6.31584 6.83332 6.54159C6.83332 6.76996 6.67349 6.92309 6.54457 7.01029C6.40516 7.10421 6.22287 7.17742 6.02366 7.23429C5.62174 7.3495 5.08332 7.41659 4.49999 7.41659C3.91666 7.41659 3.37824 7.3495 2.97632 7.23429C2.77711 7.17742 2.59482 7.10421 2.45541 7.01029C2.32649 6.92279 2.16666 6.76996 2.16666 6.54159C2.16666 6.31584 2.3227 6.16388 2.44957 6.07667C2.58666 5.98304 2.76516 5.91013 2.95999 5.85325ZM4.49999 1.58325C5.08015 1.58325 5.63655 1.81372 6.04679 2.22396C6.45702 2.63419 6.68749 3.19059 6.68749 3.77075C6.68749 4.51975 6.27916 5.12875 5.85624 5.56159C5.68812 5.7319 5.50746 5.88935 5.31578 6.03263C5.14253 6.16271 4.74645 6.40654 4.74645 6.40654C4.67133 6.44924 4.5864 6.47169 4.49999 6.47169C4.41358 6.47169 4.32865 6.44924 4.25353 6.40654C4.05688 6.2927 3.8668 6.16786 3.6842 6.03263C3.49244 5.88945 3.31177 5.73199 3.14374 5.56159C2.72082 5.12875 2.31249 4.51975 2.31249 3.77075C2.31249 3.19059 2.54296 2.63419 2.95319 2.22396C3.36343 1.81372 3.91983 1.58325 4.49999 1.58325ZM4.49999 3.18742C4.34528 3.18742 4.19691 3.24888 4.08751 3.35827C3.97811 3.46767 3.91666 3.61604 3.91666 3.77075C3.91666 3.92546 3.97811 4.07383 4.08751 4.18323C4.19691 4.29263 4.34528 4.35409 4.49999 4.35409C4.6547 4.35409 4.80307 4.29263 4.91247 4.18323C5.02186 4.07383 5.08332 3.92546 5.08332 3.77075C5.08332 3.61604 5.02186 3.46767 4.91247 3.35827C4.80307 3.24888 4.6547 3.18742 4.49999 3.18742Z" fill="black"/>
</svg>
