<svg width="17" height="14" viewBox="0 0 17 14" fill="none" xmlns="http://www.w3.org/2000/svg">
<g id="Group 2">
<path id="Vector" d="M0.813199 4.85431L0 4.47733C0.903358 2.4212 2.55565 0.813107 4.6004 0L4.61645 0.0428394L4.92021 0.8574L4.91842 0.858012C3.09621 1.58805 1.6231 3.02207 0.813199 4.85431ZM7.33008 7.88979L1.42369 5.14991C2.1687 3.46387 3.52409 2.14423 5.20079 1.47245L5.20257 1.47184L5.68823 2.77048C5.67158 2.76926 5.65732 2.76069 5.64008 2.76069C5.5354 2.76005 5.43221 2.78621 5.3398 2.83682C5.24739 2.88744 5.16865 2.96092 5.11067 3.05064C5.0527 3.14037 5.0173 3.24353 5.00767 3.35085C4.99805 3.45816 5.01449 3.56625 5.05552 3.66539C5.09656 3.76453 5.16089 3.85161 5.24274 3.9188C5.32459 3.98598 5.42138 4.03116 5.5244 4.05026C5.62742 4.06936 5.73343 4.06179 5.8329 4.02823C5.93238 3.99467 6.02218 3.93617 6.09423 3.85799L7.52863 7.69701C7.53902 7.72515 7.54109 7.75582 7.53457 7.78516C7.52805 7.8145 7.51324 7.8412 7.492 7.86188C7.47077 7.88257 7.44406 7.89632 7.41524 7.90139C7.38642 7.90647 7.35679 7.90265 7.33008 7.8904V7.88979ZM4.39948 4.60279C4.4019 4.52692 4.38948 4.45133 4.36295 4.3805C4.33642 4.30968 4.29633 4.24507 4.24506 4.19052C4.19379 4.13597 4.13239 4.0926 4.0645 4.06297C3.99662 4.03335 3.92364 4.01808 3.84991 4.01808C3.77618 4.01808 3.7032 4.03335 3.63532 4.06297C3.56744 4.0926 3.50603 4.13597 3.45476 4.19052C3.40349 4.24507 3.3634 4.30968 3.33687 4.3805C3.31035 4.45133 3.29793 4.52692 3.30035 4.60279C3.30504 4.74962 3.365 4.88883 3.46755 4.99099C3.5701 5.09315 3.70721 5.15027 3.84991 5.15027C3.99261 5.15027 4.12973 5.09315 4.23228 4.99099C4.33483 4.88883 4.39478 4.74962 4.39948 4.60279ZM6.19291 5.84513C6.19291 5.70457 6.14212 5.56904 6.05041 5.46491C5.95871 5.36077 5.83266 5.29549 5.69678 5.28175C5.56091 5.26802 5.42493 5.30682 5.3153 5.3906C5.20568 5.47438 5.13025 5.59715 5.10369 5.73502C5.07714 5.8729 5.10135 6.01601 5.17163 6.13652C5.2419 6.25703 5.35321 6.34631 5.4839 6.387C5.61458 6.42768 5.75529 6.41686 5.87865 6.35663C6.00201 6.2964 6.0992 6.19108 6.1513 6.06116C6.17887 5.99246 6.19301 5.91885 6.19291 5.84452V5.84513Z" fill="#A8BB45"/>
<g id="Group">
<path id="Vector_2" d="M11.6622 10.0715L13.2797 8.42406C13.5503 8.14873 13.9171 7.99405 14.2996 7.99402H14.7218C14.9923 7.99402 15.2517 8.10346 15.443 8.29826C15.6343 8.49307 15.7417 8.75728 15.7417 9.03277C15.7417 9.30827 15.6343 9.57248 15.443 9.76728C15.2517 9.96209 14.9923 10.0715 14.7218 10.0715H6.56275C6.29226 10.0715 6.03285 9.96209 5.84158 9.76728C5.65032 9.57248 5.54286 9.30827 5.54286 9.03277C5.54286 8.75728 5.65032 8.49307 5.84158 8.29826C6.03285 8.10346 6.29226 7.99402 6.56275 7.99402H8.42761C9.19253 7.99402 9.92634 8.30357 10.4674 8.85463L11.6622 10.0715Z" fill="#A8BB45" stroke="black" stroke-linecap="round" stroke-linejoin="round"/>
<path id="Vector_3" d="M6.05281 10.0715H15.2318V11.1103C15.2318 11.5235 15.0706 11.9198 14.7837 12.2121C14.4968 12.5043 14.1077 12.6684 13.702 12.6684H7.58264C7.17691 12.6684 6.78779 12.5043 6.50089 12.2121C6.21399 11.9198 6.05281 11.5235 6.05281 11.1103V10.0715Z" fill="#A8BB45" stroke="black" stroke-linecap="round" stroke-linejoin="round"/>
<path id="Vector_4" d="M8.09275 4.897C7.99393 4.897 7.89685 4.9116 7.80422 4.93947C8.58576 4.52702 9.57181 4.33887 10.6425 4.33887C11.821 4.33887 12.897 4.56683 13.7106 5.07099L13.7107 5.07109C14.5257 5.57571 15.0812 6.35971 15.2122 7.47172L15.2122 7.47178C15.2476 7.77191 15.0067 8.01327 14.722 8.01327H6.56292C6.27823 8.01327 6.03735 7.77191 6.07274 7.47178L6.07274 7.47172C6.19196 6.45972 6.66273 5.71939 7.36073 5.21406C7.18163 5.40423 7.0828 5.65597 7.0828 5.91638C7.0828 6.18381 7.18702 6.44209 7.37539 6.63393C7.56405 6.82609 7.82191 6.93576 8.09275 6.93576C8.36305 6.93576 8.62158 6.82647 8.81062 6.63393C8.99898 6.44209 9.1032 6.18381 9.1032 5.91638C9.1032 5.64895 8.99898 5.39067 8.81062 5.19883C8.62158 5.00628 8.36305 4.897 8.09275 4.897ZM10.8504 6.23758L10.4936 6.58788L10.8504 6.23758C10.6614 6.04504 10.4028 5.93576 10.1325 5.93576C9.86168 5.93576 9.60382 6.04542 9.41516 6.23758C9.2268 6.42943 9.12258 6.68771 9.12258 6.95513C9.12258 7.22256 9.2268 7.48084 9.41516 7.67269C9.60382 7.86484 9.86168 7.97451 10.1325 7.97451C10.4028 7.97451 10.6614 7.86523 10.8504 7.67269C11.0388 7.48084 11.143 7.22256 11.143 6.95513C11.143 6.68771 11.0388 6.42943 10.8504 6.23758ZM11.9649 5.19882C11.7765 5.39067 11.6723 5.64895 11.6723 5.91638C11.6723 6.18381 11.7765 6.44209 11.9649 6.63393C12.1539 6.82647 12.4124 6.93576 12.6827 6.93576C12.9536 6.93576 13.2114 6.82609 13.4001 6.63393C13.5885 6.44209 13.6927 6.18381 13.6927 5.91638C13.6927 5.64895 13.5885 5.39067 13.4001 5.19882C13.2111 5.00628 12.9525 4.897 12.6822 4.897C12.4114 4.897 12.1535 5.00667 11.9649 5.19882Z" fill="#A8BB45" stroke="black"/>
</g>
<path id="Vector_5" d="M9.96468 1.12903C9.91687 1.12903 9.87102 1.14489 9.83721 1.17312C9.80341 1.20135 9.78441 1.23965 9.78441 1.27957H8.9732C8.7716 1.27929 8.5747 1.33046 8.40888 1.42621C8.24306 1.52197 8.11623 1.65775 8.04536 1.81537C7.9745 1.97298 7.963 2.14492 8.01238 2.30815C8.06177 2.47139 8.1697 2.61812 8.32171 2.72871C8.21822 2.78245 8.13274 2.85723 8.07328 2.94607C8.01382 3.0349 7.98232 3.13488 7.98172 3.23665C7.98172 3.56785 8.30621 3.83883 8.7028 3.83883H11.5871C11.9837 3.83883 12.3082 3.56785 12.3082 3.23665C12.3082 3.08972 12.2411 2.95664 12.1351 2.85216L12.92 3.14211C12.9526 3.15454 12.9878 3.16145 13.0236 3.16244C13.0593 3.16342 13.095 3.15847 13.1285 3.14785C13.162 3.13723 13.1926 3.12117 13.2185 3.10059C13.2445 3.08002 13.2654 3.05534 13.2798 3.02798C13.2943 3.00063 13.3021 2.97115 13.3028 2.94126C13.3035 2.91136 13.2971 2.88164 13.284 2.85383C13.2708 2.82602 13.2512 2.80066 13.2262 2.77924C13.2013 2.75781 13.1714 2.74074 13.1385 2.72901L12.4859 2.48754L13.0736 2.40564C13.1086 2.40078 13.1422 2.3902 13.1723 2.37451C13.2025 2.35882 13.2286 2.33833 13.2493 2.3142C13.2699 2.29007 13.2847 2.26278 13.2927 2.23389C13.3007 2.20499 13.3019 2.17506 13.2961 2.1458C13.2902 2.11655 13.2776 2.08853 13.2588 2.06336C13.24 2.03819 13.2154 2.01635 13.1866 1.9991C13.1577 1.98185 13.125 1.96952 13.0904 1.96282C13.0558 1.95612 13.0199 1.95517 12.9849 1.96003L12.217 2.06692C12.0407 1.71675 11.6008 1.36508 10.866 1.29463V1.27957C10.866 1.23965 10.847 1.20135 10.8132 1.17312C10.7794 1.14489 10.7336 1.12903 10.6858 1.12903H9.96468ZM10.145 1.43012H10.5055V3.53774H10.145V1.43012ZM11.4068 2.63447C11.5002 2.63447 11.5741 2.69379 11.5835 2.76996L11.6109 2.72962C11.6226 2.71236 11.6384 2.69721 11.6572 2.68504C11.6759 2.67288 11.6974 2.66394 11.7204 2.65874C11.7433 2.65354 11.7673 2.65218 11.7908 2.65473C11.8144 2.65729 11.8372 2.66372 11.8577 2.67365C11.8783 2.68358 11.8964 2.69681 11.9108 2.71258C11.9253 2.72835 11.9358 2.74635 11.9419 2.76554C11.948 2.78474 11.9494 2.80475 11.9462 2.82442C11.943 2.84409 11.9351 2.86303 11.9231 2.88016L11.8301 3.01505C11.8673 3.043 11.8969 3.07719 11.9172 3.11537C11.9374 3.15356 11.9478 3.19489 11.9476 3.23665C11.9476 3.40616 11.7901 3.53774 11.5871 3.53774H10.866V2.93556H11.2266V2.78502C11.2266 2.70161 11.307 2.63447 11.4068 2.63447ZM8.86144 2.65555C8.89656 2.65185 8.93221 2.65692 8.9639 2.67009C8.99559 2.68327 9.02191 2.70398 9.03954 2.72962L9.11165 2.83439C9.12827 2.8189 9.14861 2.8065 9.17134 2.79799C9.19408 2.78949 9.2187 2.78506 9.24361 2.78502C9.34348 2.78502 9.42388 2.85216 9.42388 2.93556H9.78441V3.53774H8.7028C8.49982 3.53774 8.34226 3.40616 8.34226 3.23665C8.34226 3.06714 8.49982 2.93556 8.7028 2.93556H8.76553L8.72732 2.88016C8.71217 2.85869 8.70368 2.8344 8.70262 2.8095C8.70156 2.7846 8.70797 2.75987 8.72126 2.73756C8.73454 2.71525 8.75429 2.69606 8.77871 2.68174C8.80312 2.66742 8.83144 2.65841 8.86108 2.65555H8.86144Z" fill="#A8BB45"/>
</g>
</svg>
