<svg width="7" height="8" viewBox="0 0 7 8" fill="none" xmlns="http://www.w3.org/2000/svg">
<g clip-path="url(#clip0_1_47)">
<path d="M4.01686 1.14992C4.02402 1.11914 4.03639 1.09028 4.05326 1.065C4.07013 1.03971 4.09117 1.0185 4.11518 1.00256C4.13919 0.986626 4.16569 0.976283 4.19318 0.972124C4.22067 0.967965 4.2486 0.970072 4.27538 0.978323C4.66661 1.09563 5.02356 1.33068 5.30946 1.65926C5.59536 1.98783 5.79988 2.39806 5.90196 2.84768C5.90914 2.87845 5.91097 2.91055 5.90735 2.94214C5.90374 2.97373 5.89474 3.0042 5.88087 3.03179C5.867 3.05938 5.84854 3.08356 5.82654 3.10295C5.80454 3.12234 5.77943 3.13655 5.75265 3.14479C5.73483 3.15017 5.71648 3.15292 5.69805 3.15297C5.65157 3.15299 5.6064 3.13538 5.56953 3.10287C5.53266 3.07036 5.50615 3.02478 5.49413 2.97319C5.41092 2.60609 5.24402 2.27114 5.01064 2.00287C4.77725 1.73461 4.48584 1.54273 4.16643 1.44703C4.13962 1.43883 4.11449 1.42463 4.09246 1.40526C4.07043 1.38588 4.05194 1.36171 4.03805 1.33411C4.02415 1.30652 4.01513 1.27604 4.0115 1.24444C4.00786 1.21283 4.00968 1.18071 4.01686 1.14992ZM3.95539 2.41718C4.31917 2.52874 4.5529 2.79766 4.64997 3.21573C4.662 3.26732 4.6885 3.3129 4.72537 3.34541C4.76224 3.37791 4.80742 3.39553 4.85389 3.39551C4.87232 3.39546 4.89067 3.39271 4.9085 3.38732C4.93528 3.37909 4.96039 3.36487 4.98239 3.34549C5.00439 3.3261 5.02285 3.30192 5.03672 3.27432C5.05058 3.24673 5.05958 3.21627 5.0632 3.18468C5.06682 3.15309 5.06499 3.12099 5.05781 3.09022C4.92274 2.50934 4.56978 2.1037 4.06434 1.94847C4.03756 1.94025 4.00964 1.93817 3.98216 1.94235C3.95468 1.94653 3.92819 1.9569 3.90419 1.97284C3.8802 1.98879 3.85917 2.01002 3.84232 2.0353C3.82546 2.06059 3.8131 2.08944 3.80595 2.12022C3.7988 2.15099 3.79699 2.18309 3.80062 2.21467C3.80426 2.24625 3.81328 2.27669 3.82716 2.30427C3.84103 2.33184 3.8595 2.35601 3.8815 2.37538C3.90351 2.39475 3.92861 2.40895 3.95539 2.41718ZM5.86609 4.80405L4.62333 4.16405L4.6199 4.16223C4.55538 4.13052 4.485 4.11779 4.41513 4.1252C4.34526 4.13261 4.27809 4.15993 4.21972 4.20468C4.21284 4.20989 4.20624 4.21556 4.19993 4.22165L3.55785 4.85073C3.15107 4.62366 2.7311 4.14465 2.53352 3.68322L3.08169 2.93408C3.08697 2.9265 3.09198 2.91892 3.09673 2.91074C3.13483 2.84383 3.15794 2.76713 3.16402 2.68747C3.17009 2.60782 3.15894 2.52767 3.13155 2.45416V2.45052L2.57309 1.01986C2.53688 0.923832 2.47462 0.84384 2.3956 0.791823C2.31658 0.739806 2.22504 0.718553 2.13465 0.731238C1.7772 0.785295 1.44909 0.987044 1.2116 1.2988C0.974119 1.61056 0.843503 2.01101 0.844149 2.42536C0.844149 4.83254 2.54829 6.79103 4.64285 6.79103C5.00339 6.79178 5.35183 6.64166 5.6231 6.36873C5.89437 6.09581 6.06992 5.71872 6.11696 5.30792C6.12802 5.20407 6.10956 5.0989 6.06435 5.00809C6.01914 4.91728 5.94959 4.84571 5.86609 4.80405Z" fill="black"/>
</g>
<defs>
<clipPath id="clip0_1_47">
<rect width="6.75325" height="7.76119" fill="white"/>
</clipPath>
</defs>
</svg>
